<?xml version="1.0" encoding="UTF-8"?>
<svg width="20px" height="20px" viewBox="0 0 20 20" version="1.1" xmlns="http://www.w3.org/2000/svg" xmlns:xlink="http://www.w3.org/1999/xlink">
    <title>A2F73950-4E9F-4962-8BA4-E8CA1E835DA3</title>
    <g id="Page-1" stroke="none" stroke-width="1" fill="none" fill-rule="evenodd">
        <g id="adding-new-API-Calls" transform="translate(-1178.000000, -314.000000)" fill-rule="nonzero">
            <g id="Dropdown/Select/Default-Copy-3" transform="translate(1168.000000, 304.000000)">
                <g id="Slack" transform="translate(10.000000, 10.000000)">
                    <path d="M1.69809999,10.5185185 C0.957359253,10.5185185 0.327729623,10.0740741 0.0869888824,9.38888889 C0.0869888824,9.37037037 0.0684703639,9.33333333 0.0684703639,9.31481481 C-0.190788895,8.42592593 0.309211105,7.5 1.17958148,7.2037037 L15.3277296,2.46296296 C15.4943963,2.40740741 15.6795815,2.38888889 15.8462481,2.38888889 C16.6055074,2.38888889 17.2536555,2.83333333 17.4943963,3.53703704 L17.5129148,3.61111111 C17.7721741,4.53703704 17.1240259,5.37037037 16.3277296,5.62962963 C16.3277296,5.62962963 16.1795815,5.68518519 2.25365555,10.4259259 C2.08698888,10.4814815 1.88328518,10.5185185 1.69809999,10.5185185 Z" id="XMLID_10_" fill="#70CADB"></path>
                    <path d="M4.04995185,17.4814815 C3.29069259,17.4814815 2.66106296,17.0555556 2.43884073,16.3703704 C2.43884073,16.3518519 2.42032222,16.3148148 2.42032222,16.2962963 C2.16106296,15.3888889 2.66106296,14.462963 3.53143333,14.1666667 L17.6795815,9.37037037 C17.8647667,9.31481481 18.0499518,9.27777778 18.235137,9.27777778 C18.9943963,9.27777778 19.6425444,9.74074074 19.8832852,10.4259259 L19.9018037,10.5 C20.0314333,10.9814815 19.9573593,11.5185185 19.6795815,11.9444444 C19.4758778,12.2592593 18.8462481,12.537037 18.8462481,12.537037 L4.64254444,17.3888889 C4.45735925,17.4444444 4.25365555,17.462963 4.04995185,17.4814815 L4.04995185,17.4814815 Z" id="XMLID_11_" fill="#E01765"></path>
                    <path d="M15.8277296,17.5 C15.0684704,17.5 14.4018037,17.037037 14.161063,16.3148148 L9.43884073,2.2962963 L9.42032222,2.22222222 C9.16106296,1.33333333 9.66106296,0.388888889 10.5314333,0.0925925926 C10.7166185,0.037037037 10.8832852,2.63163976e-15 11.0684704,2.63163976e-15 C11.3462481,2.63163976e-15 11.6055074,0.0555555556 11.8462481,0.185185185 C12.2536555,0.388888889 12.5684704,0.740740741 12.7166185,1.18518519 L17.4388407,15.2037037 L17.4573593,15.2407407 C17.7166185,16.1666667 17.235137,17.1111111 16.3462481,17.4074074 C16.1981,17.462963 16.0129148,17.5 15.8277296,17.5 Z" id="XMLID_12_" fill="#E8A723"></path>
                    <path d="M8.8092111,19.8703704 C8.04995185,19.8703704 7.38328518,19.4074074 7.14254444,18.6851852 L2.42032222,4.66666667 C2.42032222,4.64814815 2.4018037,4.61111111 2.4018037,4.59259259 C2.14254444,3.7037037 2.64254444,2.75925926 3.51291481,2.46296296 C3.67958148,2.40740741 3.86476666,2.37037037 4.04995185,2.37037037 C4.8092111,2.37037037 5.47587777,2.83333333 5.71661851,3.55555556 L10.4388407,17.5740741 C10.4388407,17.5925926 10.4573593,17.6296296 10.4573593,17.6481481 C10.7166185,18.537037 10.2166185,19.4814815 9.34624814,19.7777778 C9.17958148,19.8333333 8.99439629,19.8703704 8.8092111,19.8703704 L8.8092111,19.8703704 L8.8092111,19.8703704 Z" id="XMLID_13_" fill="#3EB890"></path>
                    <polygon id="XMLID_14_" fill="#CC2027" points="13.4943963 14.3518519 16.7906926 13.2222222 15.7166185 10.0185185 12.4203222 11.1296296"></polygon>
                    <polygon id="XMLID_15_" fill="#361238" points="6.49439629 16.7407407 9.79069259 15.6111111 8.69809999 12.3888889 5.4018037 13.5185185"></polygon>
                    <polygon id="XMLID_16_" fill="#65863A" points="11.161063 7.38888889 14.4573593 6.25925926 13.3832852 3.11111111 10.0869889 4.2037037"></polygon>
                    <polygon id="XMLID_17_" fill="#1A937D" points="4.14254444 9.77777778 7.43884073 8.64814815 6.36476666 5.46296296 3.06847036 6.55555556"></polygon>
                </g>
            </g>
        </g>
    </g>
</svg>